<svg width="100" height="102" viewBox="0 0 100 102" fill="none" xmlns="http://www.w3.org/2000/svg">
<path opacity="0.6" d="M77.4132 88.2039L92.9511 37.8071C97.286 23.7473 84.7744 10.266 70.4305 13.542L19.0168 25.2853C4.67158 28.5601 -0.747698 46.1354 9.2626 56.9205L45.1397 95.5753C55.1474 106.359 73.0783 102.264 77.4132 88.2039Z" fill="url(#paint0_linear_48_5688)"/>
<path opacity="0.4" d="M99.1095 76.908L87.7982 17.1354C84.7898 1.2318 65.6943 -5.44895 53.4261 5.10799L7.31699 44.7899C-4.94996 55.3468 -1.18845 75.226 14.0882 80.5714L71.5086 100.662C86.7852 106.007 102.119 92.8103 99.1095 76.908Z" fill="url(#paint1_linear_48_5688)"/>
<path opacity="0.4" d="M93.7242 57.7971L63.9036 14.3002C55.5841 2.16451 37.2468 3.58654 30.8973 16.8589L8.13842 64.4333C1.78769 77.7056 12.1879 92.8752 26.8568 91.7374L79.4376 87.6611C94.1065 86.5245 102.044 69.9328 93.7242 57.7971Z" fill="url(#paint2_linear_48_5688)"/>
<path opacity="0.5" d="M50.7713 53.2866H33.9834V70.0745H50.7713V53.2866Z" fill="white"/>
<path opacity="0.8" d="M70.3384 53.2866H53.5505V70.0745H70.3384V53.2866Z" fill="white"/>
<path opacity="0.8" d="M50.7713 33.8882H33.9834V50.6761H50.7713V33.8882Z" fill="white"/>
<path opacity="0.5" d="M70.3384 33.8882H53.5505V50.6761H70.3384V33.8882Z" fill="white"/>
<path d="M45.8321 42.4999C45.8321 43.2309 45.7743 43.8855 45.6587 44.4637C45.5472 45.0378 45.3696 45.5252 45.1259 45.9258C44.8822 46.3264 44.5642 46.632 44.1719 46.8426C43.7795 47.0533 43.3046 47.1586 42.747 47.1586C42.0491 47.1586 41.4729 46.9748 41.0186 46.6072C40.5643 46.2355 40.2277 45.7027 40.0088 45.0089C39.79 44.3109 39.6805 43.4746 39.6805 42.4999C39.6805 41.5252 39.7796 40.691 39.9779 39.9971C40.1802 39.2992 40.5065 38.7643 40.9567 38.3926C41.4068 38.0209 42.0036 37.8351 42.747 37.8351C43.4491 37.8351 44.0273 38.0209 44.4816 38.3926C44.9401 38.7602 45.2787 39.293 45.4976 39.991C45.7206 40.6848 45.8321 41.5211 45.8321 42.4999ZM41.1487 42.4999C41.1487 43.264 41.1983 43.9021 41.2974 44.4142C41.4007 44.9263 41.57 45.3104 41.8054 45.5665C42.0408 45.8184 42.3547 45.9443 42.747 45.9443C43.1394 45.9443 43.4533 45.8184 43.6887 45.5665C43.9241 45.3145 44.0934 44.9325 44.1967 44.4204C44.304 43.9083 44.3577 43.2681 44.3577 42.4999C44.3577 41.74 44.3061 41.104 44.2029 40.5919C44.0996 40.0797 43.9303 39.6957 43.6949 39.4396C43.4595 39.1794 43.1435 39.0493 42.747 39.0493C42.3506 39.0493 42.0346 39.1794 41.7992 39.4396C41.5679 39.6957 41.4007 40.0797 41.2974 40.5919C41.1983 41.104 41.1487 41.74 41.1487 42.4999Z" fill="white"/>
<path d="M65.2433 62.1791C65.2433 62.9101 65.1855 63.5647 65.0698 64.1429C64.9583 64.717 64.7807 65.2044 64.537 65.605C64.2934 66.0056 63.9754 66.3112 63.583 66.5218C63.1907 66.7325 62.7157 66.8378 62.1582 66.8378C61.4602 66.8378 60.8841 66.654 60.4298 66.2864C59.9755 65.9147 59.6389 65.3819 59.42 64.6881C59.2011 63.9901 59.0916 63.1538 59.0916 62.1791C59.0916 61.2044 59.1908 60.3702 59.389 59.6763C59.5914 58.9784 59.9176 58.4435 60.3678 58.0718C60.818 57.7001 61.4148 57.5143 62.1582 57.5143C62.8603 57.5143 63.4385 57.7001 63.8928 58.0718C64.3512 58.4394 64.6899 58.9722 64.9087 59.6702C65.1318 60.364 65.2433 61.2003 65.2433 62.1791ZM60.5599 62.1791C60.5599 62.9432 60.6094 63.5813 60.7085 64.0934C60.8118 64.6055 60.9811 64.9896 61.2165 65.2457C61.4519 65.4976 61.7658 65.6235 62.1582 65.6235C62.5505 65.6235 62.8644 65.4976 63.0998 65.2457C63.3352 64.9937 63.5045 64.6117 63.6078 64.0996C63.7152 63.5875 63.7689 62.9473 63.7689 62.1791C63.7689 61.4192 63.7172 60.7832 63.614 60.2711C63.5107 59.7589 63.3414 59.3749 63.106 59.1188C62.8706 58.8586 62.5546 58.7285 62.1582 58.7285C61.7617 58.7285 61.4457 58.8586 61.2103 59.1188C60.979 59.3749 60.8118 59.7589 60.7085 60.2711C60.6094 60.7832 60.5599 61.4192 60.5599 62.1791Z" fill="white"/>
<path d="M63.1065 47.1602H61.6445V41.3307C61.6445 41.1366 61.6466 40.9424 61.6507 40.7483C61.6548 40.5542 61.659 40.3642 61.6631 40.1784C61.6714 39.9925 61.6817 39.815 61.6941 39.6456C61.6074 39.7406 61.5 39.8439 61.3719 39.9554C61.248 40.0669 61.1159 40.1825 60.9755 40.3023L59.9347 41.1324L59.2037 40.2094L61.8923 38.1031H63.1065V47.1602Z" fill="white"/>
<path d="M43.8375 66.7139H42.3755V60.8844C42.3755 60.6903 42.3775 60.4962 42.3817 60.302C42.3858 60.1079 42.3899 59.918 42.3941 59.7321C42.4023 59.5463 42.4127 59.3687 42.425 59.1993C42.3383 59.2943 42.2309 59.3976 42.1029 59.5091C41.979 59.6206 41.8468 59.7362 41.7064 59.856L40.6657 60.6861L39.9347 59.7631L42.6233 57.6568H43.8375V66.7139Z" fill="white"/>
<path opacity="0.95" d="M52.1607 56.9591C54.9095 56.9591 57.1378 54.7308 57.1378 51.982C57.1378 49.2332 54.9095 47.0049 52.1607 47.0049C49.4119 47.0049 47.1836 49.2332 47.1836 51.982C47.1836 54.7308 49.4119 56.9591 52.1607 56.9591Z" fill="white" stroke="#2CB6EA" stroke-width="1.40165" stroke-miterlimit="10"/>
<defs>
<linearGradient id="paint0_linear_48_5688" x1="98.4272" y1="50.1817" x2="9.68992" y2="70.4523" gradientUnits="userSpaceOnUse">
<stop stop-color="#1FBEC8"/>
<stop offset="0.1902" stop-color="#25BCC7"/>
<stop offset="0.2588" stop-color="#30B8C5"/>
<stop offset="0.3076" stop-color="#3DB2C2"/>
<stop offset="0.3471" stop-color="#4AAABE"/>
<stop offset="0.3809" stop-color="#58A0B9"/>
<stop offset="0.4103" stop-color="#6492B2"/>
<stop offset="0.4308" stop-color="#6D86AB"/>
<stop offset="0.5016" stop-color="#8574A3"/>
<stop offset="0.5601" stop-color="#91689D"/>
<stop offset="0.596" stop-color="#96639B"/>
<stop offset="0.5978" stop-color="#976299"/>
<stop offset="0.6321" stop-color="#B35684"/>
<stop offset="0.6681" stop-color="#C84872"/>
<stop offset="0.7065" stop-color="#D83A65"/>
<stop offset="0.7479" stop-color="#E32C5C"/>
<stop offset="0.7946" stop-color="#EA2157"/>
<stop offset="0.8578" stop-color="#EE1D56"/>
<stop offset="0.9953" stop-color="#EE1D56"/>
<stop offset="1" stop-color="#EE1D56"/>
</linearGradient>
<linearGradient id="paint1_linear_48_5688" x1="100.279" y1="27.2704" x2="22.2458" y2="94.422" gradientUnits="userSpaceOnUse">
<stop stop-color="#1FBEC8"/>
<stop offset="0.1902" stop-color="#25BCC7"/>
<stop offset="0.2588" stop-color="#30B8C5"/>
<stop offset="0.3076" stop-color="#3DB2C2"/>
<stop offset="0.3471" stop-color="#4AAABE"/>
<stop offset="0.3809" stop-color="#58A0B9"/>
<stop offset="0.4103" stop-color="#6492B2"/>
<stop offset="0.4308" stop-color="#6D86AB"/>
<stop offset="0.5016" stop-color="#8574A3"/>
<stop offset="0.5601" stop-color="#91689D"/>
<stop offset="0.596" stop-color="#96639B"/>
<stop offset="0.5978" stop-color="#976299"/>
<stop offset="0.6321" stop-color="#B35684"/>
<stop offset="0.6681" stop-color="#C84872"/>
<stop offset="0.7065" stop-color="#D83A65"/>
<stop offset="0.7479" stop-color="#E32C5C"/>
<stop offset="0.7946" stop-color="#EA2157"/>
<stop offset="0.8578" stop-color="#EE1D56"/>
<stop offset="0.9953" stop-color="#EE1D56"/>
<stop offset="1" stop-color="#EE1D56"/>
</linearGradient>
<linearGradient id="paint2_linear_48_5688" x1="76.9951" y1="17.6926" x2="37.7101" y2="99.8036" gradientUnits="userSpaceOnUse">
<stop stop-color="#1FBEC8"/>
<stop offset="0.1902" stop-color="#25BCC7"/>
<stop offset="0.2588" stop-color="#30B8C5"/>
<stop offset="0.3076" stop-color="#3DB2C2"/>
<stop offset="0.3471" stop-color="#4AAABE"/>
<stop offset="0.3809" stop-color="#58A0B9"/>
<stop offset="0.4103" stop-color="#6492B2"/>
<stop offset="0.4308" stop-color="#6D86AB"/>
<stop offset="0.5016" stop-color="#8574A3"/>
<stop offset="0.5601" stop-color="#91689D"/>
<stop offset="0.596" stop-color="#96639B"/>
<stop offset="0.5978" stop-color="#976299"/>
<stop offset="0.6321" stop-color="#B35684"/>
<stop offset="0.6681" stop-color="#C84872"/>
<stop offset="0.7065" stop-color="#D83A65"/>
<stop offset="0.7479" stop-color="#E32C5C"/>
<stop offset="0.7946" stop-color="#EA2157"/>
<stop offset="0.8578" stop-color="#EE1D56"/>
<stop offset="0.9953" stop-color="#EE1D56"/>
<stop offset="1" stop-color="#EE1D56"/>
</linearGradient>
</defs>
</svg>

