<svg width="445" height="107" viewBox="0 0 445 107" fill="none" xmlns="http://www.w3.org/2000/svg">
<path opacity="0.6" d="M77.4142 92.9998L92.9521 42.603C97.287 28.5432 84.7754 15.0619 70.4314 18.3379L19.0178 30.0812C4.67255 33.356 -0.746722 50.9313 9.26358 61.7164L45.1406 100.371C55.1484 111.155 73.0793 107.06 77.4142 92.9998Z" fill="url(#paint0_linear_48_5687)"/>
<path opacity="0.4" d="M99.1105 81.7039L87.7992 21.9313C84.7908 6.0277 65.6953 -0.653054 53.427 9.90389L7.31797 49.5858C-4.94898 60.1427 -1.18748 80.0219 14.0892 85.3673L71.5096 105.458C86.7862 110.803 102.12 97.6062 99.1105 81.7039Z" fill="url(#paint1_linear_48_5687)"/>
<path opacity="0.4" d="M93.7252 62.593L63.9045 19.0961C55.5851 6.96041 37.2478 8.38244 30.8983 21.6548L8.1394 69.2292C1.78867 82.5015 12.1889 97.6711 26.8578 96.5332L79.4386 92.457C94.1075 91.3204 102.045 74.7287 93.7252 62.593Z" fill="url(#paint2_linear_48_5687)"/>
<path opacity="0.5" d="M50.7723 58.0825H33.9844V74.8704H50.7723V58.0825Z" fill="white"/>
<path opacity="0.8" d="M70.3394 58.0825H53.5515V74.8704H70.3394V58.0825Z" fill="white"/>
<path opacity="0.8" d="M50.7723 38.6841H33.9844V55.472H50.7723V38.6841Z" fill="white"/>
<path opacity="0.5" d="M70.3394 38.6841H53.5515V55.472H70.3394V38.6841Z" fill="white"/>
<path d="M45.8331 47.2958C45.8331 48.0268 45.7753 48.6814 45.6597 49.2596C45.5481 49.8337 45.3706 50.3211 45.1269 50.7217C44.8832 51.1223 44.5652 51.4279 44.1729 51.6385C43.7805 51.8492 43.3056 51.9545 42.748 51.9545C42.05 51.9545 41.4739 51.7707 41.0196 51.4031C40.5653 51.0314 40.2287 50.4986 40.0098 49.8048C39.7909 49.1068 39.6815 48.2705 39.6815 47.2958C39.6815 46.3211 39.7806 45.4869 39.9788 44.793C40.1812 44.0951 40.5075 43.5602 40.9577 43.1885C41.4078 42.8168 42.0046 42.631 42.748 42.631C43.4501 42.631 44.0283 42.8168 44.4826 43.1885C44.941 43.5561 45.2797 44.0889 45.4986 44.7869C45.7216 45.4807 45.8331 46.317 45.8331 47.2958ZM41.1497 47.2958C41.1497 48.0599 41.1993 48.698 41.2984 49.2101C41.4016 49.7222 41.571 50.1063 41.8064 50.3624C42.0418 50.6143 42.3557 50.7402 42.748 50.7402C43.1404 50.7402 43.4542 50.6143 43.6896 50.3624C43.9251 50.1104 44.0944 49.7284 44.1976 49.2163C44.305 48.7042 44.3587 48.064 44.3587 47.2958C44.3587 46.5359 44.3071 45.8999 44.2038 45.3878C44.1006 44.8756 43.9313 44.4916 43.6958 44.2355C43.4604 43.9753 43.1445 43.8452 42.748 43.8452C42.3515 43.8452 42.0356 43.9753 41.8002 44.2355C41.5689 44.4916 41.4016 44.8756 41.2984 45.3878C41.1993 45.8999 41.1497 46.5359 41.1497 47.2958Z" fill="white"/>
<path d="M65.2442 66.975C65.2442 67.706 65.1864 68.3606 65.0708 68.9388C64.9593 69.5129 64.7817 70.0003 64.538 70.4009C64.2943 70.8015 63.9763 71.1071 63.584 71.3177C63.1916 71.5284 62.7167 71.6337 62.1591 71.6337C61.4612 71.6337 60.885 71.4499 60.4307 71.0823C59.9764 70.7106 59.6398 70.1778 59.4209 69.484C59.2021 68.786 59.0926 67.9497 59.0926 66.975C59.0926 66.0003 59.1917 65.1661 59.39 64.4722C59.5923 63.7743 59.9186 63.2394 60.3688 62.8677C60.819 62.496 61.4157 62.3102 62.1591 62.3102C62.8612 62.3102 63.4394 62.496 63.8937 62.8677C64.3522 63.2353 64.6908 63.7681 64.9097 64.4661C65.1327 65.1599 65.2442 65.9962 65.2442 66.975ZM60.5608 66.975C60.5608 67.7391 60.6104 68.3772 60.7095 68.8893C60.8128 69.4014 60.9821 69.7855 61.2175 70.0416C61.4529 70.2935 61.7668 70.4194 62.1591 70.4194C62.5515 70.4194 62.8654 70.2935 63.1008 70.0416C63.3362 69.7896 63.5055 69.4076 63.6088 68.8955C63.7161 68.3834 63.7698 67.7432 63.7698 66.975C63.7698 66.2151 63.7182 65.5791 63.615 65.067C63.5117 64.5548 63.3424 64.1708 63.107 63.9147C62.8716 63.6545 62.5556 63.5244 62.1591 63.5244C61.7627 63.5244 61.4467 63.6545 61.2113 63.9147C60.98 64.1708 60.8128 64.5548 60.7095 65.067C60.6104 65.5791 60.5608 66.2151 60.5608 66.975Z" fill="white"/>
<path d="M63.1075 51.9561H61.6455V46.1266C61.6455 45.9325 61.6476 45.7383 61.6517 45.5442C61.6558 45.3501 61.66 45.1601 61.6641 44.9743C61.6723 44.7884 61.6827 44.6109 61.6951 44.4415C61.6083 44.5365 61.501 44.6398 61.3729 44.7513C61.249 44.8628 61.1169 44.9784 60.9764 45.0982L59.9357 45.9283L59.2047 45.0053L61.8933 42.899H63.1075V51.9561Z" fill="white"/>
<path d="M43.8385 71.5098H42.3765V65.6803C42.3765 65.4862 42.3785 65.2921 42.3827 65.0979C42.3868 64.9038 42.3909 64.7139 42.395 64.528C42.4033 64.3422 42.4136 64.1646 42.426 63.9952C42.3393 64.0902 42.2319 64.1935 42.1039 64.305C41.98 64.4165 41.8478 64.5321 41.7074 64.6519L40.6666 65.482L39.9356 64.559L42.6243 62.4527H43.8385V71.5098Z" fill="white"/>
<path opacity="0.95" d="M52.1617 61.755C54.9105 61.755 57.1388 59.5267 57.1388 56.7779C57.1388 54.0291 54.9105 51.8008 52.1617 51.8008C49.4129 51.8008 47.1846 54.0291 47.1846 56.7779C47.1846 59.5267 49.4129 61.755 52.1617 61.755Z" fill="white" stroke="#2CB6EA" stroke-width="1.40165" stroke-miterlimit="10"/>
<path d="M195.455 64.6367C194.882 64.6367 194.271 65.0228 193.623 65.795C192.8 66.7927 191.635 68.1255 190.127 69.7948C188.619 71.4653 186.868 72.2999 184.875 72.2999H169.847V52.0002H177.249C178.42 52.0002 179.291 52.6361 179.866 53.9065C180.44 55.1769 181.261 55.8127 182.333 55.8127C183.454 55.8127 184.015 55.3017 184.015 54.2798V44.7843C184.015 43.7624 183.454 43.2514 182.333 43.2514C181.236 43.2514 180.438 43.8936 179.94 45.1768C179.442 46.4612 178.619 47.1021 177.473 47.1021H169.847V28.2997H184.875C186.072 28.2997 187.068 28.7176 187.866 29.5522C188.663 30.3881 189.673 31.6521 190.893 33.3469C191.741 34.5931 192.476 35.2161 193.099 35.2161C194.245 35.2161 194.819 34.7052 194.819 33.6833V23.3276H161.409C161.076 24.2986 160.574 25.2313 160.07 26.1042C159.891 26.4125 159.705 26.726 159.509 27.0369C160.642 27.4905 161.21 28.3353 161.21 29.5701V71.1034C161.21 72.3993 160.587 73.2657 159.341 73.7015C158.095 74.1373 157.472 74.8292 157.472 75.776C157.472 76.7979 158.007 77.3089 159.08 77.3089H194.183L197.062 67.1036C197.137 66.8551 197.174 66.5429 197.174 66.1696C197.174 65.1477 196.601 64.6367 195.455 64.6367Z" fill="white"/>
<path d="M231.08 78.6925C223.18 78.6925 216.184 76.176 210.09 71.1415C203.997 66.107 200.95 59.1791 200.95 50.3564C200.95 41.7579 203.909 34.849 209.829 29.6273C215.748 24.4068 222.832 21.7959 231.082 21.7959C234.023 21.7959 237.156 22.1259 240.484 22.786C243.811 23.446 247.12 24.8235 250.409 26.917L249.475 35.216C249.275 36.0889 248.714 36.5247 247.793 36.5247H247.644C246.946 36.475 246.348 35.964 245.85 34.9918C244.304 31.7017 242.411 29.5215 240.168 28.4499C237.926 27.3783 234.897 26.8418 231.084 26.8418C225.8 26.8418 221.078 28.692 216.916 32.3936C212.753 36.094 210.674 42.0828 210.674 50.3564C210.674 55.6406 212.63 60.7298 216.543 65.6279C220.455 70.5248 225.315 73.1114 231.123 73.3854C231.72 73.4109 232.281 73.4224 232.805 73.4224C235.819 73.4224 238.3 72.9738 240.243 72.0768C242.436 71.0306 244.306 68.8492 245.851 65.5349C246.324 64.6379 246.91 64.1269 247.608 64.002H247.87C248.791 64.002 249.327 64.4505 249.476 65.3476L249.589 66.3937L246.186 75.9262C243.47 77.0475 240.841 77.7891 238.299 78.151C235.753 78.5116 233.347 78.6925 231.08 78.6925Z" fill="white"/>
<path d="M268.913 29.5701V46.3185H298.633V29.5701C298.633 28.2984 298.01 27.4396 296.763 26.991C295.517 26.5425 294.894 25.8328 294.894 24.8605C294.894 23.8386 295.468 23.3276 296.614 23.3276H309.288C310.433 23.3276 311.008 23.8386 311.008 24.8605C311.008 25.8328 310.379 26.5425 309.12 26.991C307.861 27.4396 307.231 28.2997 307.231 29.5701V71.1034C307.231 72.3993 307.861 73.2657 309.12 73.7015C310.377 74.1373 311.008 74.8292 311.008 75.776C311.008 76.7979 310.435 77.3089 309.288 77.3089H296.614C295.468 77.3089 294.894 76.7979 294.894 75.776C294.894 74.8292 295.517 74.1373 296.763 73.7015C298.01 73.2657 298.633 72.3993 298.633 71.1034V51.2523H268.913V71.1034C268.913 72.3993 269.536 73.2657 270.782 73.7015C272.028 74.1373 272.651 74.8292 272.651 75.776C272.651 76.7979 272.091 77.3089 270.969 77.3089H258.296C257.149 77.3089 256.576 76.7979 256.576 75.776C256.576 74.8292 257.199 74.1373 258.445 73.7015C259.691 73.2657 260.314 72.3993 260.314 71.1034V29.5701C260.314 28.2984 259.691 27.4396 258.445 26.991C257.199 26.5425 256.576 25.8328 256.576 24.8605C256.576 23.8386 257.149 23.3276 258.296 23.3276H270.969C272.091 23.3276 272.651 23.8386 272.651 24.8605C272.651 25.8328 272.028 26.5425 270.782 26.991C269.536 27.4396 268.913 28.2997 268.913 29.5701Z" fill="white"/>
<path d="M330.185 72.2999H345.213C347.208 72.2999 348.957 71.4653 350.466 69.7948C351.973 68.1255 353.139 66.7914 353.961 65.795C354.608 65.0228 355.219 64.6367 355.793 64.6367C356.939 64.6367 357.514 65.1477 357.514 66.1696C357.514 66.5429 357.477 66.8551 357.401 67.1036L354.523 77.3089H319.531C318.385 77.3089 317.811 76.7979 317.811 75.776C317.811 74.8292 318.434 74.1373 319.681 73.7015C320.927 73.2657 321.55 72.3993 321.55 71.1034V29.5701C321.55 28.2984 320.927 27.4396 319.681 26.991C318.434 26.5425 317.811 25.8328 317.811 24.8605C317.811 23.8386 318.385 23.3276 319.531 23.3276H332.205C333.326 23.3276 333.887 23.8386 333.887 24.8605C333.887 25.8328 333.264 26.5425 332.018 26.991C330.771 27.4396 330.148 28.2997 330.148 29.5701L330.185 72.2999Z" fill="white"/>
<path d="M376.913 29.5713V71.0664C376.913 72.3878 377.537 73.2657 378.783 73.7015C380.029 74.1373 380.652 74.8292 380.652 75.776C380.652 76.7979 380.079 77.3089 378.932 77.3089H366.258C365.137 77.3089 364.576 76.7979 364.576 75.776C364.576 74.8292 365.2 74.1373 366.446 73.7015C367.692 73.2657 368.315 72.3993 368.315 71.1034V29.5713C368.315 28.2754 367.692 27.409 366.446 26.9732C365.2 26.5374 364.576 25.8328 364.576 24.8605C364.576 23.8386 365.15 23.3276 366.297 23.3276H378.932C380.077 23.3276 380.652 23.8386 380.652 24.8605C380.652 25.8328 380.029 26.5374 378.783 26.9732C377.537 27.4103 376.913 28.2754 376.913 29.5713Z" fill="white"/>
<path d="M435.756 66.4308V29.5701C435.756 28.2984 435.139 27.4396 433.906 26.991C432.672 26.5425 432.055 25.8328 432.055 24.8605C432.055 23.8386 432.616 23.3276 433.737 23.3276H443.27C444.415 23.3276 444.99 23.8386 444.99 24.8605C444.99 25.8328 444.367 26.5425 443.121 26.991C441.874 27.4396 441.251 28.2997 441.251 29.5701L441.213 79.1782L433.063 77.1967L398.783 34.6542V71.1034C398.783 72.3993 399.406 73.2658 400.652 73.7015C401.898 74.1373 402.521 74.8292 402.521 75.776C402.521 76.7979 401.948 77.3089 400.801 77.3089H391.306C390.159 77.3089 389.585 76.7979 389.585 75.776C389.585 74.8292 390.209 74.1373 391.455 73.7015C392.701 73.2658 393.324 72.3993 393.324 71.1034V29.5701C393.324 28.2984 392.701 27.4396 391.455 26.991C390.209 26.5425 389.585 25.8328 389.585 24.8605C389.585 23.8386 390.159 23.3276 391.306 23.3276H401.437L435.756 66.4308Z" fill="white"/>
<path d="M169.781 29.0085V70.5415C169.781 71.8375 170.404 72.7098 171.651 73.1584C172.922 73.582 173.557 74.2674 173.557 75.2145C173.557 76.2363 172.984 76.7472 171.837 76.7472H159.164C158.018 76.7472 157.445 76.2363 157.445 75.2145C157.445 74.2674 158.068 73.582 159.314 73.1584C160.56 72.7098 161.183 71.8375 161.183 70.5415V34.6534L141.183 77.8687H138.454L118.678 36.3356V70.5415C118.678 71.8375 119.301 72.7098 120.547 73.1584C121.793 73.582 122.416 74.2674 122.416 75.2145C122.416 76.2363 121.843 76.7472 120.697 76.7472H111.201C110.055 76.7472 109.482 76.2363 109.482 75.2145C109.482 74.2674 110.105 73.582 111.351 73.1584C112.597 72.7098 113.22 71.8375 113.22 70.5415V29.0085C113.22 27.7374 112.597 26.8776 111.351 26.429C110.105 25.9804 109.482 25.2701 109.482 24.2982C109.482 23.2763 110.055 22.7654 111.201 22.7654H121.781L141.594 63.3639L160.772 22.7654H171.837C172.984 22.7654 173.557 23.2763 173.557 24.2982C173.557 25.2701 172.922 25.9804 171.651 26.429C170.404 26.8776 169.781 27.7374 169.781 29.0085Z" fill="#1FA9E1"/>
<path d="M171.651 73.1584L171.586 73.3383L171.59 73.3397L171.651 73.1584ZM159.314 73.1584L159.375 73.3394L159.379 73.3382L159.314 73.1584ZM161.183 34.6534H161.374V33.7853L161.01 34.5731L161.183 34.6534ZM141.183 77.8687V78.0598H141.305L141.356 77.949L141.183 77.8687ZM138.454 77.8687L138.281 77.9509L138.333 78.0598H138.454V77.8687ZM118.678 36.3356L118.851 36.2535L118.487 35.4896V36.3356H118.678ZM120.547 73.1584L120.483 73.3382L120.486 73.3393L120.547 73.1584ZM111.351 73.1584L111.412 73.3394L111.416 73.3382L111.351 73.1584ZM111.351 26.429L111.286 26.6089L111.351 26.429ZM121.781 22.7654L121.953 22.6816L121.9 22.5743H121.781V22.7654ZM141.594 63.3639L141.422 63.4477L141.597 63.8054L141.767 63.4455L141.594 63.3639ZM160.772 22.7654V22.5743H160.651L160.599 22.6838L160.772 22.7654ZM171.651 26.429L171.587 26.2488L171.586 26.2492L171.651 26.429ZM169.781 29.0085H169.59V70.5415H169.781H169.972V29.0085H169.781ZM169.781 70.5415H169.59C169.59 71.2208 169.754 71.804 170.093 72.2788C170.432 72.7533 170.935 73.1039 171.586 73.3382L171.651 73.1584L171.715 72.9785C171.12 72.7643 170.688 72.4544 170.404 72.0566C170.12 71.6592 169.972 71.1582 169.972 70.5415H169.781ZM171.651 73.1584L171.59 73.3397C172.208 73.5455 172.652 73.809 172.94 74.1201C173.225 74.4269 173.366 74.7884 173.366 75.2145H173.557H173.748C173.748 74.6934 173.572 74.2387 173.221 73.8602C172.874 73.486 172.365 73.1949 171.711 72.977L171.651 73.1584ZM173.557 75.2145H173.366C173.366 75.6898 173.234 76.0131 173 76.2213C172.762 76.4333 172.386 76.556 171.837 76.556V76.7472V76.9383C172.435 76.9383 172.919 76.8056 173.254 76.5067C173.594 76.204 173.748 75.7609 173.748 75.2145H173.557ZM171.837 76.7472V76.556H159.164V76.7472V76.9383H171.837V76.7472ZM159.164 76.7472V76.556C158.616 76.556 158.24 76.4333 158.002 76.2213C157.768 76.0131 157.636 75.6898 157.636 75.2145H157.445H157.254C157.254 75.7609 157.408 76.204 157.748 76.5067C158.083 76.8056 158.567 76.9383 159.164 76.9383V76.7472ZM157.445 75.2145H157.636C157.636 74.7873 157.775 74.4254 158.054 74.1187C158.336 73.808 158.771 73.5449 159.375 73.3393L159.314 73.1584L159.252 72.9774C158.611 73.1955 158.111 73.487 157.771 73.8616C157.426 74.2403 157.254 74.6946 157.254 75.2145H157.445ZM159.314 73.1584L159.379 73.3382C160.03 73.1039 160.532 72.7533 160.871 72.2788C161.211 71.804 161.374 71.2208 161.374 70.5415H161.183H160.992C160.992 71.1582 160.844 71.6592 160.56 72.0566C160.276 72.4544 159.844 72.7643 159.249 72.9785L159.314 73.1584ZM161.183 70.5415H161.374V34.6534H161.183H160.992V70.5415H161.183ZM161.183 34.6534L161.01 34.5731L141.01 77.7884L141.183 77.8687L141.356 77.949L161.357 34.7337L161.183 34.6534ZM141.183 77.8687V77.6776H138.454V77.8687V78.0598H141.183V77.8687ZM138.454 77.8687L138.627 77.7865L118.851 36.2535L118.678 36.3356L118.506 36.4178L138.281 77.9509L138.454 77.8687ZM118.678 36.3356H118.487V70.5415H118.678H118.869V36.3356H118.678ZM118.678 70.5415H118.487C118.487 71.2208 118.651 71.804 118.99 72.2788C119.329 72.7533 119.832 73.1039 120.483 73.3382L120.547 73.1584L120.612 72.9785C120.017 72.7643 119.585 72.4544 119.301 72.0566C119.017 71.6592 118.869 71.1582 118.869 70.5415H118.678ZM120.547 73.1584L120.486 73.3393C121.09 73.5449 121.525 73.808 121.808 74.1187C122.087 74.4254 122.225 74.7873 122.225 75.2145H122.416H122.608C122.608 74.6946 122.435 74.2403 122.091 73.8616C121.75 73.487 121.25 73.1955 120.609 72.9774L120.547 73.1584ZM122.416 75.2145H122.225C122.225 75.6898 122.093 76.0131 121.859 76.2213C121.622 76.4333 121.246 76.556 120.697 76.556V76.7472V76.9383C121.294 76.9383 121.778 76.8056 122.114 76.5067C122.453 76.204 122.608 75.7609 122.608 75.2145H122.416ZM120.697 76.7472V76.556H111.201V76.7472V76.9383H120.697V76.7472ZM111.201 76.7472V76.556C110.653 76.556 110.277 76.4333 110.039 76.2213C109.805 76.0131 109.673 75.6898 109.673 75.2145H109.482H109.291C109.291 75.7609 109.445 76.204 109.785 76.5067C110.12 76.8056 110.604 76.9383 111.201 76.9383V76.7472ZM109.482 75.2145H109.673C109.673 74.7873 109.812 74.4254 110.091 74.1187C110.373 73.808 110.808 73.5449 111.412 73.3393L111.351 73.1584L111.289 72.9774C110.648 73.1955 110.148 73.487 109.808 73.8616C109.463 74.2403 109.291 74.6946 109.291 75.2145H109.482ZM111.351 73.1584L111.416 73.3382C112.067 73.1039 112.569 72.7533 112.908 72.2788C113.248 71.804 113.411 71.2208 113.411 70.5415H113.22H113.029C113.029 71.1582 112.881 71.6592 112.597 72.0566C112.313 72.4544 111.881 72.7643 111.286 72.9785L111.351 73.1584ZM113.22 70.5415H113.411V29.0085H113.22H113.029V70.5415H113.22ZM113.22 29.0085H113.411C113.411 28.3408 113.247 27.7667 112.908 27.2982C112.569 26.8303 112.066 26.4833 111.416 26.2492L111.351 26.429L111.286 26.6089C111.882 26.8234 112.314 27.1306 112.598 27.5225C112.882 27.9138 113.029 28.4051 113.029 29.0085H113.22ZM111.351 26.429L111.416 26.2492C110.812 26.0317 110.376 25.7568 110.093 25.4338C109.813 25.1146 109.673 24.7392 109.673 24.2982H109.482H109.291C109.291 24.8291 109.462 25.2948 109.805 25.6859C110.145 26.0732 110.644 26.3778 111.286 26.6089L111.351 26.429ZM109.482 24.2982H109.673C109.673 23.8228 109.805 23.4995 110.039 23.2913C110.277 23.0793 110.653 22.9566 111.201 22.9566V22.7654V22.5743C110.604 22.5743 110.12 22.707 109.785 23.0059C109.445 23.3086 109.291 23.7517 109.291 24.2982H109.482ZM111.201 22.7654V22.9566H121.781V22.7654V22.5743H111.201V22.7654ZM121.781 22.7654L121.609 22.8493L141.422 63.4477L141.594 63.3639L141.766 63.2801L121.953 22.6816L121.781 22.7654ZM141.594 63.3639L141.767 63.4455L160.945 22.8471L160.772 22.7654L160.599 22.6838L141.421 63.2823L141.594 63.3639ZM160.772 22.7654V22.9566H171.837V22.7654V22.5743H160.772V22.7654ZM171.837 22.7654V22.9566C172.386 22.9566 172.762 23.0793 173 23.2913C173.234 23.4995 173.366 23.8228 173.366 24.2982H173.557H173.748C173.748 23.7517 173.594 23.3086 173.254 23.0059C172.919 22.707 172.435 22.5743 171.837 22.5743V22.7654ZM173.557 24.2982H173.366C173.366 24.7381 173.224 25.1131 172.938 25.4324C172.649 25.7557 172.204 26.031 171.587 26.2488L171.651 26.429L171.714 26.6093C172.368 26.3784 172.877 26.0743 173.223 25.6873C173.573 25.2963 173.748 24.8301 173.748 24.2982H173.557ZM171.651 26.429L171.586 26.2492C170.936 26.4833 170.433 26.8303 170.094 27.2982C169.754 27.7667 169.59 28.3408 169.59 29.0085H169.781H169.972C169.972 28.4051 170.12 27.9138 170.403 27.5225C170.687 27.1306 171.119 26.8234 171.715 26.6089L171.651 26.429Z" fill="white"/>
<defs>
<linearGradient id="paint0_linear_48_5687" x1="98.4282" y1="54.9776" x2="9.6909" y2="75.2482" gradientUnits="userSpaceOnUse">
<stop stop-color="#1FBEC8"/>
<stop offset="0.1902" stop-color="#25BCC7"/>
<stop offset="0.2588" stop-color="#30B8C5"/>
<stop offset="0.3076" stop-color="#3DB2C2"/>
<stop offset="0.3471" stop-color="#4AAABE"/>
<stop offset="0.3809" stop-color="#58A0B9"/>
<stop offset="0.4103" stop-color="#6492B2"/>
<stop offset="0.4308" stop-color="#6D86AB"/>
<stop offset="0.5016" stop-color="#8574A3"/>
<stop offset="0.5601" stop-color="#91689D"/>
<stop offset="0.596" stop-color="#96639B"/>
<stop offset="0.5978" stop-color="#976299"/>
<stop offset="0.6321" stop-color="#B35684"/>
<stop offset="0.6681" stop-color="#C84872"/>
<stop offset="0.7065" stop-color="#D83A65"/>
<stop offset="0.7479" stop-color="#E32C5C"/>
<stop offset="0.7946" stop-color="#EA2157"/>
<stop offset="0.8578" stop-color="#EE1D56"/>
<stop offset="0.9953" stop-color="#EE1D56"/>
<stop offset="1" stop-color="#EE1D56"/>
</linearGradient>
<linearGradient id="paint1_linear_48_5687" x1="100.28" y1="32.0663" x2="22.2467" y2="99.2179" gradientUnits="userSpaceOnUse">
<stop stop-color="#1FBEC8"/>
<stop offset="0.1902" stop-color="#25BCC7"/>
<stop offset="0.2588" stop-color="#30B8C5"/>
<stop offset="0.3076" stop-color="#3DB2C2"/>
<stop offset="0.3471" stop-color="#4AAABE"/>
<stop offset="0.3809" stop-color="#58A0B9"/>
<stop offset="0.4103" stop-color="#6492B2"/>
<stop offset="0.4308" stop-color="#6D86AB"/>
<stop offset="0.5016" stop-color="#8574A3"/>
<stop offset="0.5601" stop-color="#91689D"/>
<stop offset="0.596" stop-color="#96639B"/>
<stop offset="0.5978" stop-color="#976299"/>
<stop offset="0.6321" stop-color="#B35684"/>
<stop offset="0.6681" stop-color="#C84872"/>
<stop offset="0.7065" stop-color="#D83A65"/>
<stop offset="0.7479" stop-color="#E32C5C"/>
<stop offset="0.7946" stop-color="#EA2157"/>
<stop offset="0.8578" stop-color="#EE1D56"/>
<stop offset="0.9953" stop-color="#EE1D56"/>
<stop offset="1" stop-color="#EE1D56"/>
</linearGradient>
<linearGradient id="paint2_linear_48_5687" x1="76.9961" y1="22.4885" x2="37.711" y2="104.599" gradientUnits="userSpaceOnUse">
<stop stop-color="#1FBEC8"/>
<stop offset="0.1902" stop-color="#25BCC7"/>
<stop offset="0.2588" stop-color="#30B8C5"/>
<stop offset="0.3076" stop-color="#3DB2C2"/>
<stop offset="0.3471" stop-color="#4AAABE"/>
<stop offset="0.3809" stop-color="#58A0B9"/>
<stop offset="0.4103" stop-color="#6492B2"/>
<stop offset="0.4308" stop-color="#6D86AB"/>
<stop offset="0.5016" stop-color="#8574A3"/>
<stop offset="0.5601" stop-color="#91689D"/>
<stop offset="0.596" stop-color="#96639B"/>
<stop offset="0.5978" stop-color="#976299"/>
<stop offset="0.6321" stop-color="#B35684"/>
<stop offset="0.6681" stop-color="#C84872"/>
<stop offset="0.7065" stop-color="#D83A65"/>
<stop offset="0.7479" stop-color="#E32C5C"/>
<stop offset="0.7946" stop-color="#EA2157"/>
<stop offset="0.8578" stop-color="#EE1D56"/>
<stop offset="0.9953" stop-color="#EE1D56"/>
<stop offset="1" stop-color="#EE1D56"/>
</linearGradient>
</defs>
</svg>
